<svg width="24" height="24" viewBox="0 0 24 24" fill="none" xmlns="http://www.w3.org/2000/svg">
  <path d="M12 3C8.5 3 5.6 5.6 5.1 9.1C4.8 10.6 5.2 12.1 6.1 13.3C7 14.5 8.4 15.2 9.9 15.2C13.4 15.2 16.3 12.6 16.8 9.1C17.1 7.6 16.7 6.1 15.8 4.9C14.9 3.7 13.5 3 12 3Z" stroke="currentColor" stroke-width="2" stroke-linecap="round" stroke-linejoin="round"/>
  <path d="M19 3L20 4L19 5L18 4L19 3Z" stroke="currentColor" stroke-width="2" stroke-linecap="round" stroke-linejoin="round"/>
  <path d="M21 8L22 9L21 10L20 9L21 8Z" stroke="currentColor" stroke-width="2" stroke-linecap="round" stroke-linejoin="round"/>
</svg>